G04 #@! TF.FileFunction,Soldermask,Bot*
%FSLAX46Y46*%
G04 Gerber Fmt 4.6, Leading zero omitted, Abs format (unit mm)*
G04 Created by KiCad (PCBNEW 4.0.0-rc1-stable) date 05/12/2015 12:00:57*
%MOMM*%
G01*
G04 APERTURE LIST*
%ADD10C,0.100000*%
%ADD11C,5.200600*%
%ADD12R,5.200600X5.200600*%
%ADD13R,2.127200X2.432000*%
%ADD14O,2.127200X2.432000*%
%ADD15R,2.127200X2.127200*%
%ADD16O,2.127200X2.127200*%
%ADD17R,1.600000X1.300000*%
%ADD18R,2.635200X2.635200*%
%ADD19R,2.300000X2.500000*%
%ADD20O,1.700000X1.450000*%
%ADD21R,1.924000X1.924000*%
%ADD22C,1.924000*%
%ADD23R,1.200000X3.900000*%
%ADD24R,2.400000X2.100000*%
%ADD25R,2.150000X1.900000*%
%ADD26R,2.200000X2.150000*%
%ADD27R,1.900000X2.150000*%
%ADD28C,3.700000*%
G04 APERTURE END LIST*
D10*
D11*
X114106960Y-111704120D03*
D12*
X120202960Y-111704120D03*
D11*
X116392960Y-116784120D03*
D13*
X174040000Y-124700000D03*
D14*
X176580000Y-124700000D03*
X179120000Y-124700000D03*
X181660000Y-124700000D03*
X184200000Y-124700000D03*
X186740000Y-124700000D03*
D15*
X168010840Y-99500000D03*
D16*
X170550840Y-99500000D03*
X168010840Y-102040000D03*
X170550840Y-102040000D03*
X168010840Y-104580000D03*
X170550840Y-104580000D03*
D17*
X176250000Y-121100000D03*
X174050000Y-121100000D03*
D18*
X170525160Y-124714000D03*
X125870000Y-76454000D03*
D19*
X111414900Y-89616900D03*
X111414900Y-96996900D03*
D20*
X114594900Y-91081900D03*
X114594900Y-95531900D03*
D15*
X192468500Y-114592100D03*
D16*
X192468500Y-112052100D03*
X189928500Y-114592100D03*
X189928500Y-112052100D03*
X187388500Y-114592100D03*
X187388500Y-112052100D03*
X184848500Y-114592100D03*
X184848500Y-112052100D03*
D15*
X189712600Y-94856300D03*
D16*
X192252600Y-94856300D03*
X189712600Y-92316300D03*
X192252600Y-92316300D03*
X189712600Y-89776300D03*
X192252600Y-89776300D03*
X189712600Y-87236300D03*
X192252600Y-87236300D03*
D17*
X130736160Y-91041220D03*
X132936160Y-91041220D03*
X130792040Y-88750140D03*
X132992040Y-88750140D03*
X178265000Y-94107000D03*
X176065000Y-94107000D03*
X139100000Y-92650000D03*
X136900000Y-92650000D03*
X136900000Y-94520000D03*
X139100000Y-94520000D03*
D21*
X168019000Y-76454000D03*
D22*
X162939000Y-76454000D03*
X160399000Y-76454000D03*
X157859000Y-76454000D03*
X155319000Y-76454000D03*
X152779000Y-76454000D03*
X150239000Y-76454000D03*
D21*
X146175000Y-76454000D03*
D22*
X143635000Y-76454000D03*
X141095000Y-76454000D03*
X138555000Y-76454000D03*
X136015000Y-76454000D03*
X133479000Y-76454000D03*
X165479000Y-76454000D03*
D21*
X168019000Y-124714000D03*
D22*
X165479000Y-124714000D03*
X162939000Y-124714000D03*
X160399000Y-124714000D03*
X157859000Y-124714000D03*
X155319000Y-124714000D03*
X150239000Y-124714000D03*
X145159000Y-124714000D03*
X142619000Y-124714000D03*
X140079000Y-124714000D03*
X137539000Y-124714000D03*
X147699000Y-124714000D03*
X130939000Y-76454000D03*
X128399000Y-76454000D03*
D23*
X182465960Y-78467040D03*
X181365960Y-78467040D03*
X180265960Y-78467040D03*
X179165960Y-78467040D03*
X178065960Y-78467040D03*
X176965960Y-78467040D03*
X175865960Y-78467040D03*
X174765960Y-78467040D03*
D24*
X173015960Y-76467040D03*
X186515960Y-76467040D03*
D25*
X172890960Y-86217040D03*
D26*
X173015960Y-91242040D03*
D27*
X182215960Y-91242040D03*
X179915960Y-91242040D03*
D28*
X114000000Y-78500000D03*
X114000000Y-123000000D03*
X192000000Y-123000000D03*
X192000000Y-78500000D03*
M02*
