G04 #@! TF.FileFunction,Legend,Bot*
%FSLAX46Y46*%
G04 Gerber Fmt 4.6, Leading zero omitted, Abs format (unit mm)*
G04 Created by KiCad (PCBNEW 4.0.0-rc1-stable) date 05/12/2015 12:00:57*
%MOMM*%
G01*
G04 APERTURE LIST*
%ADD10C,0.100000*%
%ADD11C,0.300000*%
%ADD12C,0.150000*%
%ADD13C,5.200600*%
%ADD14R,5.200600X5.200600*%
%ADD15R,2.127200X2.432000*%
%ADD16O,2.127200X2.432000*%
%ADD17R,2.127200X2.127200*%
%ADD18O,2.127200X2.127200*%
%ADD19R,1.600000X1.300000*%
%ADD20R,2.635200X2.635200*%
%ADD21R,2.300000X2.500000*%
%ADD22O,1.700000X1.450000*%
%ADD23R,1.924000X1.924000*%
%ADD24C,1.924000*%
%ADD25R,1.200000X3.900000*%
%ADD26R,2.400000X2.100000*%
%ADD27R,2.150000X1.900000*%
%ADD28R,2.200000X2.150000*%
%ADD29R,1.900000X2.150000*%
%ADD30C,3.700000*%
G04 APERTURE END LIST*
D10*
D11*
X162535714Y-113572857D02*
X162535714Y-112372857D01*
X162021428Y-113572857D02*
X162021428Y-112944286D01*
X162078571Y-112830000D01*
X162192857Y-112772857D01*
X162364285Y-112772857D01*
X162478571Y-112830000D01*
X162535714Y-112887143D01*
X161621428Y-112772857D02*
X161164285Y-112772857D01*
X161450000Y-112372857D02*
X161450000Y-113401429D01*
X161392857Y-113515714D01*
X161278571Y-113572857D01*
X161164285Y-113572857D01*
X160935714Y-112772857D02*
X160478571Y-112772857D01*
X160764286Y-112372857D02*
X160764286Y-113401429D01*
X160707143Y-113515714D01*
X160592857Y-113572857D01*
X160478571Y-113572857D01*
X160078572Y-112772857D02*
X160078572Y-113972857D01*
X160078572Y-112830000D02*
X159964286Y-112772857D01*
X159735715Y-112772857D01*
X159621429Y-112830000D01*
X159564286Y-112887143D01*
X159507143Y-113001429D01*
X159507143Y-113344286D01*
X159564286Y-113458571D01*
X159621429Y-113515714D01*
X159735715Y-113572857D01*
X159964286Y-113572857D01*
X160078572Y-113515714D01*
X159050001Y-113515714D02*
X158935715Y-113572857D01*
X158707143Y-113572857D01*
X158592858Y-113515714D01*
X158535715Y-113401429D01*
X158535715Y-113344286D01*
X158592858Y-113230000D01*
X158707143Y-113172857D01*
X158878572Y-113172857D01*
X158992858Y-113115714D01*
X159050001Y-113001429D01*
X159050001Y-112944286D01*
X158992858Y-112830000D01*
X158878572Y-112772857D01*
X158707143Y-112772857D01*
X158592858Y-112830000D01*
X158021429Y-113458571D02*
X157964286Y-113515714D01*
X158021429Y-113572857D01*
X158078572Y-113515714D01*
X158021429Y-113458571D01*
X158021429Y-113572857D01*
X158021429Y-112830000D02*
X157964286Y-112887143D01*
X158021429Y-112944286D01*
X158078572Y-112887143D01*
X158021429Y-112830000D01*
X158021429Y-112944286D01*
X156592857Y-112315714D02*
X157621428Y-113858571D01*
X155335714Y-112315714D02*
X156364285Y-113858571D01*
X154421428Y-112772857D02*
X154421428Y-113744286D01*
X154478571Y-113858571D01*
X154535714Y-113915714D01*
X154649999Y-113972857D01*
X154821428Y-113972857D01*
X154935714Y-113915714D01*
X154421428Y-113515714D02*
X154535714Y-113572857D01*
X154764285Y-113572857D01*
X154878571Y-113515714D01*
X154935714Y-113458571D01*
X154992857Y-113344286D01*
X154992857Y-113001429D01*
X154935714Y-112887143D01*
X154878571Y-112830000D01*
X154764285Y-112772857D01*
X154535714Y-112772857D01*
X154421428Y-112830000D01*
X153850000Y-113572857D02*
X153850000Y-112772857D01*
X153850000Y-112372857D02*
X153907143Y-112430000D01*
X153850000Y-112487143D01*
X153792857Y-112430000D01*
X153850000Y-112372857D01*
X153850000Y-112487143D01*
X153449999Y-112772857D02*
X152992856Y-112772857D01*
X153278571Y-112372857D02*
X153278571Y-113401429D01*
X153221428Y-113515714D01*
X153107142Y-113572857D01*
X152992856Y-113572857D01*
X152592857Y-113572857D02*
X152592857Y-112372857D01*
X152078571Y-113572857D02*
X152078571Y-112944286D01*
X152135714Y-112830000D01*
X152250000Y-112772857D01*
X152421428Y-112772857D01*
X152535714Y-112830000D01*
X152592857Y-112887143D01*
X150992857Y-112772857D02*
X150992857Y-113572857D01*
X151507143Y-112772857D02*
X151507143Y-113401429D01*
X151450000Y-113515714D01*
X151335714Y-113572857D01*
X151164286Y-113572857D01*
X151050000Y-113515714D01*
X150992857Y-113458571D01*
X150421429Y-113572857D02*
X150421429Y-112372857D01*
X150421429Y-112830000D02*
X150307143Y-112772857D01*
X150078572Y-112772857D01*
X149964286Y-112830000D01*
X149907143Y-112887143D01*
X149850000Y-113001429D01*
X149850000Y-113344286D01*
X149907143Y-113458571D01*
X149964286Y-113515714D01*
X150078572Y-113572857D01*
X150307143Y-113572857D01*
X150421429Y-113515714D01*
X149335715Y-113458571D02*
X149278572Y-113515714D01*
X149335715Y-113572857D01*
X149392858Y-113515714D01*
X149335715Y-113458571D01*
X149335715Y-113572857D01*
X148250000Y-113515714D02*
X148364286Y-113572857D01*
X148592857Y-113572857D01*
X148707143Y-113515714D01*
X148764286Y-113458571D01*
X148821429Y-113344286D01*
X148821429Y-113001429D01*
X148764286Y-112887143D01*
X148707143Y-112830000D01*
X148592857Y-112772857D01*
X148364286Y-112772857D01*
X148250000Y-112830000D01*
X147564286Y-113572857D02*
X147678572Y-113515714D01*
X147735715Y-113458571D01*
X147792858Y-113344286D01*
X147792858Y-113001429D01*
X147735715Y-112887143D01*
X147678572Y-112830000D01*
X147564286Y-112772857D01*
X147392858Y-112772857D01*
X147278572Y-112830000D01*
X147221429Y-112887143D01*
X147164286Y-113001429D01*
X147164286Y-113344286D01*
X147221429Y-113458571D01*
X147278572Y-113515714D01*
X147392858Y-113572857D01*
X147564286Y-113572857D01*
X146650001Y-113572857D02*
X146650001Y-112772857D01*
X146650001Y-112887143D02*
X146592858Y-112830000D01*
X146478572Y-112772857D01*
X146307144Y-112772857D01*
X146192858Y-112830000D01*
X146135715Y-112944286D01*
X146135715Y-113572857D01*
X146135715Y-112944286D02*
X146078572Y-112830000D01*
X145964286Y-112772857D01*
X145792858Y-112772857D01*
X145678572Y-112830000D01*
X145621429Y-112944286D01*
X145621429Y-113572857D01*
X144192858Y-112315714D02*
X145221429Y-113858571D01*
X143792858Y-112772857D02*
X143792858Y-113801429D01*
X143850001Y-113915714D01*
X143964286Y-113972857D01*
X144021429Y-113972857D01*
X143792858Y-112372857D02*
X143850001Y-112430000D01*
X143792858Y-112487143D01*
X143735715Y-112430000D01*
X143792858Y-112372857D01*
X143792858Y-112487143D01*
X142707143Y-113572857D02*
X142707143Y-112944286D01*
X142764286Y-112830000D01*
X142878572Y-112772857D01*
X143107143Y-112772857D01*
X143221429Y-112830000D01*
X142707143Y-113515714D02*
X142821429Y-113572857D01*
X143107143Y-113572857D01*
X143221429Y-113515714D01*
X143278572Y-113401429D01*
X143278572Y-113287143D01*
X143221429Y-113172857D01*
X143107143Y-113115714D01*
X142821429Y-113115714D01*
X142707143Y-113058571D01*
X142250000Y-112772857D02*
X141964286Y-113572857D01*
X141678572Y-112772857D01*
X141221429Y-113572857D02*
X141221429Y-112772857D01*
X141221429Y-112372857D02*
X141278572Y-112430000D01*
X141221429Y-112487143D01*
X141164286Y-112430000D01*
X141221429Y-112372857D01*
X141221429Y-112487143D01*
X140821428Y-112772857D02*
X140364285Y-112772857D01*
X140650000Y-113572857D02*
X140650000Y-112544286D01*
X140592857Y-112430000D01*
X140478571Y-112372857D01*
X140364285Y-112372857D01*
X139507143Y-113515714D02*
X139621429Y-113572857D01*
X139850000Y-113572857D01*
X139964286Y-113515714D01*
X140021429Y-113401429D01*
X140021429Y-112944286D01*
X139964286Y-112830000D01*
X139850000Y-112772857D01*
X139621429Y-112772857D01*
X139507143Y-112830000D01*
X139450000Y-112944286D01*
X139450000Y-113058571D01*
X140021429Y-113172857D01*
X138935715Y-113572857D02*
X138935715Y-112772857D01*
X138935715Y-113001429D02*
X138878572Y-112887143D01*
X138821429Y-112830000D01*
X138707143Y-112772857D01*
X138592858Y-112772857D01*
X137678572Y-113515714D02*
X137792858Y-113572857D01*
X138021429Y-113572857D01*
X138135715Y-113515714D01*
X138192858Y-113458571D01*
X138250001Y-113344286D01*
X138250001Y-113001429D01*
X138192858Y-112887143D01*
X138135715Y-112830000D01*
X138021429Y-112772857D01*
X137792858Y-112772857D01*
X137678572Y-112830000D01*
X136707144Y-113515714D02*
X136821430Y-113572857D01*
X137050001Y-113572857D01*
X137164287Y-113515714D01*
X137221430Y-113401429D01*
X137221430Y-112944286D01*
X137164287Y-112830000D01*
X137050001Y-112772857D01*
X136821430Y-112772857D01*
X136707144Y-112830000D01*
X136650001Y-112944286D01*
X136650001Y-113058571D01*
X137221430Y-113172857D01*
X136135716Y-112772857D02*
X136135716Y-113972857D01*
X136135716Y-112830000D02*
X136021430Y-112772857D01*
X135792859Y-112772857D01*
X135678573Y-112830000D01*
X135621430Y-112887143D01*
X135564287Y-113001429D01*
X135564287Y-113344286D01*
X135621430Y-113458571D01*
X135678573Y-113515714D01*
X135792859Y-113572857D01*
X136021430Y-113572857D01*
X136135716Y-113515714D01*
X134192859Y-112315714D02*
X135221430Y-113858571D01*
X133792859Y-113572857D02*
X133792859Y-112372857D01*
X133107144Y-113572857D02*
X133621430Y-112887143D01*
X133107144Y-112372857D02*
X133792859Y-113058571D01*
X132592859Y-113572857D02*
X132592859Y-112772857D01*
X132592859Y-113001429D02*
X132535716Y-112887143D01*
X132478573Y-112830000D01*
X132364287Y-112772857D01*
X132250002Y-112772857D01*
X131335716Y-113572857D02*
X131335716Y-112944286D01*
X131392859Y-112830000D01*
X131507145Y-112772857D01*
X131735716Y-112772857D01*
X131850002Y-112830000D01*
X131335716Y-113515714D02*
X131450002Y-113572857D01*
X131735716Y-113572857D01*
X131850002Y-113515714D01*
X131907145Y-113401429D01*
X131907145Y-113287143D01*
X131850002Y-113172857D01*
X131735716Y-113115714D01*
X131450002Y-113115714D01*
X131335716Y-113058571D01*
X130764288Y-113572857D02*
X130764288Y-112372857D01*
X130650002Y-113115714D02*
X130307145Y-113572857D01*
X130307145Y-112772857D02*
X130764288Y-113230000D01*
X129621430Y-113572857D02*
X129735716Y-113515714D01*
X129792859Y-113458571D01*
X129850002Y-113344286D01*
X129850002Y-113001429D01*
X129792859Y-112887143D01*
X129735716Y-112830000D01*
X129621430Y-112772857D01*
X129450002Y-112772857D01*
X129335716Y-112830000D01*
X129278573Y-112887143D01*
X129221430Y-113001429D01*
X129221430Y-113344286D01*
X129278573Y-113458571D01*
X129335716Y-113515714D01*
X129450002Y-113572857D01*
X129621430Y-113572857D01*
X128764288Y-113515714D02*
X128650002Y-113572857D01*
X128421430Y-113572857D01*
X128307145Y-113515714D01*
X128250002Y-113401429D01*
X128250002Y-113344286D01*
X128307145Y-113230000D01*
X128421430Y-113172857D01*
X128592859Y-113172857D01*
X128707145Y-113115714D01*
X128764288Y-113001429D01*
X128764288Y-112944286D01*
X128707145Y-112830000D01*
X128592859Y-112772857D01*
X128421430Y-112772857D01*
X128307145Y-112830000D01*
X127735716Y-113572857D02*
X127735716Y-112372857D01*
X127621430Y-113115714D02*
X127278573Y-113572857D01*
X127278573Y-112772857D02*
X127735716Y-113230000D01*
X126764287Y-113572857D02*
X126764287Y-112772857D01*
X126764287Y-112372857D02*
X126821430Y-112430000D01*
X126764287Y-112487143D01*
X126707144Y-112430000D01*
X126764287Y-112372857D01*
X126764287Y-112487143D01*
D12*
X174650000Y-121775000D02*
X175650000Y-121775000D01*
X175650000Y-120425000D02*
X174650000Y-120425000D01*
X132336160Y-90366220D02*
X131336160Y-90366220D01*
X131336160Y-91716220D02*
X132336160Y-91716220D01*
X132392040Y-88075140D02*
X131392040Y-88075140D01*
X131392040Y-89425140D02*
X132392040Y-89425140D01*
X176665000Y-94782000D02*
X177665000Y-94782000D01*
X177665000Y-93432000D02*
X176665000Y-93432000D01*
X137500000Y-93325000D02*
X138500000Y-93325000D01*
X138500000Y-91975000D02*
X137500000Y-91975000D01*
X138500000Y-93845000D02*
X137500000Y-93845000D01*
X137500000Y-95195000D02*
X138500000Y-95195000D01*
X186915960Y-80217040D02*
X172615960Y-80217040D01*
X186915960Y-75617040D02*
X186915960Y-91517040D01*
X186915960Y-91517040D02*
X172615960Y-91517040D01*
X172615960Y-75617040D02*
X172615960Y-91517040D01*
X172615960Y-75617040D02*
X186915960Y-75617040D01*
X176935714Y-118652381D02*
X176935714Y-119366667D01*
X176983334Y-119509524D01*
X177078572Y-119604762D01*
X177221429Y-119652381D01*
X177316667Y-119652381D01*
X176459524Y-119652381D02*
X176459524Y-118652381D01*
X176078571Y-118652381D01*
X175983333Y-118700000D01*
X175935714Y-118747619D01*
X175888095Y-118842857D01*
X175888095Y-118985714D01*
X175935714Y-119080952D01*
X175983333Y-119128571D01*
X176078571Y-119176190D01*
X176459524Y-119176190D01*
X175030952Y-118985714D02*
X175030952Y-119652381D01*
X175269048Y-118604762D02*
X175507143Y-119319048D01*
X174888095Y-119319048D01*
X174316667Y-118652381D02*
X174221428Y-118652381D01*
X174126190Y-118700000D01*
X174078571Y-118747619D01*
X174030952Y-118842857D01*
X173983333Y-119033333D01*
X173983333Y-119271429D01*
X174030952Y-119461905D01*
X174078571Y-119557143D01*
X174126190Y-119604762D01*
X174221428Y-119652381D01*
X174316667Y-119652381D01*
X174411905Y-119604762D01*
X174459524Y-119557143D01*
X174507143Y-119461905D01*
X174554762Y-119271429D01*
X174554762Y-119033333D01*
X174507143Y-118842857D01*
X174459524Y-118747619D01*
X174411905Y-118700000D01*
X174316667Y-118652381D01*
X173030952Y-119652381D02*
X173602381Y-119652381D01*
X173316667Y-119652381D02*
X173316667Y-118652381D01*
X173411905Y-118795238D01*
X173507143Y-118890476D01*
X173602381Y-118938095D01*
X132955207Y-93393601D02*
X133288541Y-92917410D01*
X133526636Y-93393601D02*
X133526636Y-92393601D01*
X133145683Y-92393601D01*
X133050445Y-92441220D01*
X133002826Y-92488839D01*
X132955207Y-92584077D01*
X132955207Y-92726934D01*
X133002826Y-92822172D01*
X133050445Y-92869791D01*
X133145683Y-92917410D01*
X133526636Y-92917410D01*
X132621874Y-92393601D02*
X131955207Y-92393601D01*
X132383779Y-93393601D01*
X131383779Y-92393601D02*
X131288540Y-92393601D01*
X131193302Y-92441220D01*
X131145683Y-92488839D01*
X131098064Y-92584077D01*
X131050445Y-92774553D01*
X131050445Y-93012649D01*
X131098064Y-93203125D01*
X131145683Y-93298363D01*
X131193302Y-93345982D01*
X131288540Y-93393601D01*
X131383779Y-93393601D01*
X131479017Y-93345982D01*
X131526636Y-93298363D01*
X131574255Y-93203125D01*
X131621874Y-93012649D01*
X131621874Y-92774553D01*
X131574255Y-92584077D01*
X131526636Y-92488839D01*
X131479017Y-92441220D01*
X131383779Y-92393601D01*
X130193302Y-92393601D02*
X130383779Y-92393601D01*
X130479017Y-92441220D01*
X130526636Y-92488839D01*
X130621874Y-92631696D01*
X130669493Y-92822172D01*
X130669493Y-93203125D01*
X130621874Y-93298363D01*
X130574255Y-93345982D01*
X130479017Y-93393601D01*
X130288540Y-93393601D01*
X130193302Y-93345982D01*
X130145683Y-93298363D01*
X130098064Y-93203125D01*
X130098064Y-92965030D01*
X130145683Y-92869791D01*
X130193302Y-92822172D01*
X130288540Y-92774553D01*
X130479017Y-92774553D01*
X130574255Y-92822172D01*
X130621874Y-92869791D01*
X130669493Y-92965030D01*
X132939047Y-87592381D02*
X133272381Y-87116190D01*
X133510476Y-87592381D02*
X133510476Y-86592381D01*
X133129523Y-86592381D01*
X133034285Y-86640000D01*
X132986666Y-86687619D01*
X132939047Y-86782857D01*
X132939047Y-86925714D01*
X132986666Y-87020952D01*
X133034285Y-87068571D01*
X133129523Y-87116190D01*
X133510476Y-87116190D01*
X132605714Y-86592381D02*
X131939047Y-86592381D01*
X132367619Y-87592381D01*
X131367619Y-86592381D02*
X131272380Y-86592381D01*
X131177142Y-86640000D01*
X131129523Y-86687619D01*
X131081904Y-86782857D01*
X131034285Y-86973333D01*
X131034285Y-87211429D01*
X131081904Y-87401905D01*
X131129523Y-87497143D01*
X131177142Y-87544762D01*
X131272380Y-87592381D01*
X131367619Y-87592381D01*
X131462857Y-87544762D01*
X131510476Y-87497143D01*
X131558095Y-87401905D01*
X131605714Y-87211429D01*
X131605714Y-86973333D01*
X131558095Y-86782857D01*
X131510476Y-86687619D01*
X131462857Y-86640000D01*
X131367619Y-86592381D01*
X130700952Y-86592381D02*
X130034285Y-86592381D01*
X130462857Y-87592381D01*
X178785238Y-96322381D02*
X179118572Y-95846190D01*
X179356667Y-96322381D02*
X179356667Y-95322381D01*
X178975714Y-95322381D01*
X178880476Y-95370000D01*
X178832857Y-95417619D01*
X178785238Y-95512857D01*
X178785238Y-95655714D01*
X178832857Y-95750952D01*
X178880476Y-95798571D01*
X178975714Y-95846190D01*
X179356667Y-95846190D01*
X177832857Y-96322381D02*
X178404286Y-96322381D01*
X178118572Y-96322381D02*
X178118572Y-95322381D01*
X178213810Y-95465238D01*
X178309048Y-95560476D01*
X178404286Y-95608095D01*
X177213810Y-95322381D02*
X177118571Y-95322381D01*
X177023333Y-95370000D01*
X176975714Y-95417619D01*
X176928095Y-95512857D01*
X176880476Y-95703333D01*
X176880476Y-95941429D01*
X176928095Y-96131905D01*
X176975714Y-96227143D01*
X177023333Y-96274762D01*
X177118571Y-96322381D01*
X177213810Y-96322381D01*
X177309048Y-96274762D01*
X177356667Y-96227143D01*
X177404286Y-96131905D01*
X177451905Y-95941429D01*
X177451905Y-95703333D01*
X177404286Y-95512857D01*
X177356667Y-95417619D01*
X177309048Y-95370000D01*
X177213810Y-95322381D01*
X176261429Y-95322381D02*
X176166190Y-95322381D01*
X176070952Y-95370000D01*
X176023333Y-95417619D01*
X175975714Y-95512857D01*
X175928095Y-95703333D01*
X175928095Y-95941429D01*
X175975714Y-96131905D01*
X176023333Y-96227143D01*
X176070952Y-96274762D01*
X176166190Y-96322381D01*
X176261429Y-96322381D01*
X176356667Y-96274762D01*
X176404286Y-96227143D01*
X176451905Y-96131905D01*
X176499524Y-95941429D01*
X176499524Y-95703333D01*
X176451905Y-95512857D01*
X176404286Y-95417619D01*
X176356667Y-95370000D01*
X176261429Y-95322381D01*
X175070952Y-95322381D02*
X175261429Y-95322381D01*
X175356667Y-95370000D01*
X175404286Y-95417619D01*
X175499524Y-95560476D01*
X175547143Y-95750952D01*
X175547143Y-96131905D01*
X175499524Y-96227143D01*
X175451905Y-96274762D01*
X175356667Y-96322381D01*
X175166190Y-96322381D01*
X175070952Y-96274762D01*
X175023333Y-96227143D01*
X174975714Y-96131905D01*
X174975714Y-95893810D01*
X175023333Y-95798571D01*
X175070952Y-95750952D01*
X175166190Y-95703333D01*
X175356667Y-95703333D01*
X175451905Y-95750952D01*
X175499524Y-95798571D01*
X175547143Y-95893810D01*
X139595238Y-91202381D02*
X139928572Y-90726190D01*
X140166667Y-91202381D02*
X140166667Y-90202381D01*
X139785714Y-90202381D01*
X139690476Y-90250000D01*
X139642857Y-90297619D01*
X139595238Y-90392857D01*
X139595238Y-90535714D01*
X139642857Y-90630952D01*
X139690476Y-90678571D01*
X139785714Y-90726190D01*
X140166667Y-90726190D01*
X138642857Y-91202381D02*
X139214286Y-91202381D01*
X138928572Y-91202381D02*
X138928572Y-90202381D01*
X139023810Y-90345238D01*
X139119048Y-90440476D01*
X139214286Y-90488095D01*
X138261905Y-90297619D02*
X138214286Y-90250000D01*
X138119048Y-90202381D01*
X137880952Y-90202381D01*
X137785714Y-90250000D01*
X137738095Y-90297619D01*
X137690476Y-90392857D01*
X137690476Y-90488095D01*
X137738095Y-90630952D01*
X138309524Y-91202381D01*
X137690476Y-91202381D01*
X137071429Y-90202381D02*
X136976190Y-90202381D01*
X136880952Y-90250000D01*
X136833333Y-90297619D01*
X136785714Y-90392857D01*
X136738095Y-90583333D01*
X136738095Y-90821429D01*
X136785714Y-91011905D01*
X136833333Y-91107143D01*
X136880952Y-91154762D01*
X136976190Y-91202381D01*
X137071429Y-91202381D01*
X137166667Y-91154762D01*
X137214286Y-91107143D01*
X137261905Y-91011905D01*
X137309524Y-90821429D01*
X137309524Y-90583333D01*
X137261905Y-90392857D01*
X137214286Y-90297619D01*
X137166667Y-90250000D01*
X137071429Y-90202381D01*
X135785714Y-91202381D02*
X136357143Y-91202381D01*
X136071429Y-91202381D02*
X136071429Y-90202381D01*
X136166667Y-90345238D01*
X136261905Y-90440476D01*
X136357143Y-90488095D01*
X139595238Y-96872381D02*
X139928572Y-96396190D01*
X140166667Y-96872381D02*
X140166667Y-95872381D01*
X139785714Y-95872381D01*
X139690476Y-95920000D01*
X139642857Y-95967619D01*
X139595238Y-96062857D01*
X139595238Y-96205714D01*
X139642857Y-96300952D01*
X139690476Y-96348571D01*
X139785714Y-96396190D01*
X140166667Y-96396190D01*
X138642857Y-96872381D02*
X139214286Y-96872381D01*
X138928572Y-96872381D02*
X138928572Y-95872381D01*
X139023810Y-96015238D01*
X139119048Y-96110476D01*
X139214286Y-96158095D01*
X138261905Y-95967619D02*
X138214286Y-95920000D01*
X138119048Y-95872381D01*
X137880952Y-95872381D01*
X137785714Y-95920000D01*
X137738095Y-95967619D01*
X137690476Y-96062857D01*
X137690476Y-96158095D01*
X137738095Y-96300952D01*
X138309524Y-96872381D01*
X137690476Y-96872381D01*
X137071429Y-95872381D02*
X136976190Y-95872381D01*
X136880952Y-95920000D01*
X136833333Y-95967619D01*
X136785714Y-96062857D01*
X136738095Y-96253333D01*
X136738095Y-96491429D01*
X136785714Y-96681905D01*
X136833333Y-96777143D01*
X136880952Y-96824762D01*
X136976190Y-96872381D01*
X137071429Y-96872381D01*
X137166667Y-96824762D01*
X137214286Y-96777143D01*
X137261905Y-96681905D01*
X137309524Y-96491429D01*
X137309524Y-96253333D01*
X137261905Y-96062857D01*
X137214286Y-95967619D01*
X137166667Y-95920000D01*
X137071429Y-95872381D01*
X136357143Y-95967619D02*
X136309524Y-95920000D01*
X136214286Y-95872381D01*
X135976190Y-95872381D01*
X135880952Y-95920000D01*
X135833333Y-95967619D01*
X135785714Y-96062857D01*
X135785714Y-96158095D01*
X135833333Y-96300952D01*
X136404762Y-96872381D01*
X135785714Y-96872381D01*
X184910476Y-92522381D02*
X184910476Y-93331905D01*
X184862857Y-93427143D01*
X184815238Y-93474762D01*
X184720000Y-93522381D01*
X184529523Y-93522381D01*
X184434285Y-93474762D01*
X184386666Y-93427143D01*
X184339047Y-93331905D01*
X184339047Y-92522381D01*
X183339047Y-93522381D02*
X183910476Y-93522381D01*
X183624762Y-93522381D02*
X183624762Y-92522381D01*
X183720000Y-92665238D01*
X183815238Y-92760476D01*
X183910476Y-92808095D01*
X182720000Y-92522381D02*
X182624761Y-92522381D01*
X182529523Y-92570000D01*
X182481904Y-92617619D01*
X182434285Y-92712857D01*
X182386666Y-92903333D01*
X182386666Y-93141429D01*
X182434285Y-93331905D01*
X182481904Y-93427143D01*
X182529523Y-93474762D01*
X182624761Y-93522381D01*
X182720000Y-93522381D01*
X182815238Y-93474762D01*
X182862857Y-93427143D01*
X182910476Y-93331905D01*
X182958095Y-93141429D01*
X182958095Y-92903333D01*
X182910476Y-92712857D01*
X182862857Y-92617619D01*
X182815238Y-92570000D01*
X182720000Y-92522381D01*
X181767619Y-92522381D02*
X181672380Y-92522381D01*
X181577142Y-92570000D01*
X181529523Y-92617619D01*
X181481904Y-92712857D01*
X181434285Y-92903333D01*
X181434285Y-93141429D01*
X181481904Y-93331905D01*
X181529523Y-93427143D01*
X181577142Y-93474762D01*
X181672380Y-93522381D01*
X181767619Y-93522381D01*
X181862857Y-93474762D01*
X181910476Y-93427143D01*
X181958095Y-93331905D01*
X182005714Y-93141429D01*
X182005714Y-92903333D01*
X181958095Y-92712857D01*
X181910476Y-92617619D01*
X181862857Y-92570000D01*
X181767619Y-92522381D01*
X180481904Y-93522381D02*
X181053333Y-93522381D01*
X180767619Y-93522381D02*
X180767619Y-92522381D01*
X180862857Y-92665238D01*
X180958095Y-92760476D01*
X181053333Y-92808095D01*
%LPC*%
D13*
X114106960Y-111704120D03*
D14*
X120202960Y-111704120D03*
D13*
X116392960Y-116784120D03*
D15*
X174040000Y-124700000D03*
D16*
X176580000Y-124700000D03*
X179120000Y-124700000D03*
X181660000Y-124700000D03*
X184200000Y-124700000D03*
X186740000Y-124700000D03*
D17*
X168010840Y-99500000D03*
D18*
X170550840Y-99500000D03*
X168010840Y-102040000D03*
X170550840Y-102040000D03*
X168010840Y-104580000D03*
X170550840Y-104580000D03*
D19*
X176250000Y-121100000D03*
X174050000Y-121100000D03*
D20*
X170525160Y-124714000D03*
X125870000Y-76454000D03*
D21*
X111414900Y-89616900D03*
X111414900Y-96996900D03*
D22*
X114594900Y-91081900D03*
X114594900Y-95531900D03*
D17*
X192468500Y-114592100D03*
D18*
X192468500Y-112052100D03*
X189928500Y-114592100D03*
X189928500Y-112052100D03*
X187388500Y-114592100D03*
X187388500Y-112052100D03*
X184848500Y-114592100D03*
X184848500Y-112052100D03*
D17*
X189712600Y-94856300D03*
D18*
X192252600Y-94856300D03*
X189712600Y-92316300D03*
X192252600Y-92316300D03*
X189712600Y-89776300D03*
X192252600Y-89776300D03*
X189712600Y-87236300D03*
X192252600Y-87236300D03*
D19*
X130736160Y-91041220D03*
X132936160Y-91041220D03*
X130792040Y-88750140D03*
X132992040Y-88750140D03*
X178265000Y-94107000D03*
X176065000Y-94107000D03*
X139100000Y-92650000D03*
X136900000Y-92650000D03*
X136900000Y-94520000D03*
X139100000Y-94520000D03*
D23*
X168019000Y-76454000D03*
D24*
X162939000Y-76454000D03*
X160399000Y-76454000D03*
X157859000Y-76454000D03*
X155319000Y-76454000D03*
X152779000Y-76454000D03*
X150239000Y-76454000D03*
D23*
X146175000Y-76454000D03*
D24*
X143635000Y-76454000D03*
X141095000Y-76454000D03*
X138555000Y-76454000D03*
X136015000Y-76454000D03*
X133479000Y-76454000D03*
X165479000Y-76454000D03*
D23*
X168019000Y-124714000D03*
D24*
X165479000Y-124714000D03*
X162939000Y-124714000D03*
X160399000Y-124714000D03*
X157859000Y-124714000D03*
X155319000Y-124714000D03*
X150239000Y-124714000D03*
X145159000Y-124714000D03*
X142619000Y-124714000D03*
X140079000Y-124714000D03*
X137539000Y-124714000D03*
X147699000Y-124714000D03*
X130939000Y-76454000D03*
X128399000Y-76454000D03*
D25*
X182465960Y-78467040D03*
X181365960Y-78467040D03*
X180265960Y-78467040D03*
X179165960Y-78467040D03*
X178065960Y-78467040D03*
X176965960Y-78467040D03*
X175865960Y-78467040D03*
X174765960Y-78467040D03*
D26*
X173015960Y-76467040D03*
X186515960Y-76467040D03*
D27*
X172890960Y-86217040D03*
D28*
X173015960Y-91242040D03*
D29*
X182215960Y-91242040D03*
X179915960Y-91242040D03*
D30*
X114000000Y-78500000D03*
X114000000Y-123000000D03*
X192000000Y-123000000D03*
X192000000Y-78500000D03*
M02*
