G04 #@! TF.FileFunction,Soldermask,Top*
%FSLAX46Y46*%
G04 Gerber Fmt 4.6, Leading zero omitted, Abs format (unit mm)*
G04 Created by KiCad (PCBNEW 4.0.0-rc1-stable) date 05/12/2015 12:00:57*
%MOMM*%
G01*
G04 APERTURE LIST*
%ADD10C,0.100000*%
%ADD11R,2.400000X2.000000*%
%ADD12R,1.900000X1.650000*%
%ADD13R,1.150000X1.600000*%
%ADD14R,1.650000X1.900000*%
%ADD15R,2.000000X2.400000*%
%ADD16R,1.600000X1.150000*%
%ADD17C,5.200600*%
%ADD18R,5.200600X5.200600*%
%ADD19R,2.127200X2.432000*%
%ADD20O,2.127200X2.432000*%
%ADD21R,2.127200X2.127200*%
%ADD22O,2.127200X2.127200*%
%ADD23R,3.900120X2.200860*%
%ADD24R,2.200860X3.900120*%
%ADD25R,1.620000X1.310000*%
%ADD26R,1.598880X1.598880*%
%ADD27R,0.700000X1.420000*%
%ADD28R,2.300000X2.130000*%
%ADD29R,4.057600X2.432000*%
%ADD30R,1.416000X2.432000*%
%ADD31R,1.050000X1.460000*%
%ADD32R,1.460000X1.050000*%
%ADD33R,2.180000X3.960000*%
%ADD34R,1.300000X1.600000*%
%ADD35R,2.635200X2.635200*%
%ADD36R,2.300000X2.200000*%
%ADD37R,2.300000X2.500000*%
%ADD38R,1.750000X0.800000*%
%ADD39O,1.700000X1.450000*%
%ADD40R,2.200860X1.200100*%
%ADD41R,1.600000X1.300000*%
%ADD42R,1.700000X1.900000*%
%ADD43R,2.500000X1.800000*%
%ADD44R,1.924000X1.924000*%
%ADD45C,1.924000*%
%ADD46R,1.400000X0.650000*%
%ADD47R,0.650000X1.400000*%
%ADD48R,2.800000X2.100000*%
%ADD49C,3.700000*%
G04 APERTURE END LIST*
D10*
D11*
X128679960Y-121930160D03*
X124679960Y-121930160D03*
D12*
X132191440Y-122069860D03*
X134691440Y-122069860D03*
D13*
X136770000Y-117670000D03*
X136770000Y-115770000D03*
X146791680Y-111287600D03*
X146791680Y-109387600D03*
D14*
X130060700Y-114267300D03*
X130060700Y-111767300D03*
D13*
X149128480Y-111226640D03*
X149128480Y-109326640D03*
D15*
X142661640Y-107613200D03*
X142661640Y-103613200D03*
D13*
X144100000Y-98550000D03*
X144100000Y-100450000D03*
X145800000Y-98550000D03*
X145800000Y-100450000D03*
D14*
X121615200Y-102991600D03*
X121615200Y-105491600D03*
D13*
X186415680Y-79684920D03*
X186415680Y-77784920D03*
X142100000Y-90850000D03*
X142100000Y-88950000D03*
X142100000Y-92850000D03*
X142100000Y-94750000D03*
X120037860Y-97553740D03*
X120037860Y-99453740D03*
D12*
X160950000Y-103400000D03*
X163450000Y-103400000D03*
D14*
X167200000Y-88650000D03*
X167200000Y-86150000D03*
D13*
X154500000Y-101950000D03*
X154500000Y-103850000D03*
D16*
X145650000Y-81400000D03*
X147550000Y-81400000D03*
D13*
X153160000Y-84940000D03*
X153160000Y-83040000D03*
D16*
X161750000Y-101500000D03*
X163650000Y-101500000D03*
X147550000Y-85000000D03*
X145650000Y-85000000D03*
D13*
X165200000Y-87950000D03*
X165200000Y-86050000D03*
X151610000Y-84910000D03*
X151610000Y-83010000D03*
D17*
X114106960Y-111704120D03*
D18*
X120202960Y-111704120D03*
D17*
X116392960Y-116784120D03*
D19*
X174040000Y-124700000D03*
D20*
X176580000Y-124700000D03*
X179120000Y-124700000D03*
X181660000Y-124700000D03*
X184200000Y-124700000D03*
X186740000Y-124700000D03*
D21*
X168010840Y-99500000D03*
D22*
X170550840Y-99500000D03*
X168010840Y-102040000D03*
X170550840Y-102040000D03*
X168010840Y-104580000D03*
X170550840Y-104580000D03*
D23*
X128788160Y-118242080D03*
X123789440Y-118242080D03*
D24*
X126707900Y-113449100D03*
X126707900Y-108450380D03*
X142549880Y-116550440D03*
X142549880Y-111551720D03*
D25*
X124470000Y-99815000D03*
X124470000Y-96545000D03*
D26*
X113339880Y-101589840D03*
X111241840Y-101589840D03*
X114069020Y-86080000D03*
X111970980Y-86080000D03*
X190958280Y-99459500D03*
X193056320Y-99459500D03*
X190907180Y-101764800D03*
X193005220Y-101764800D03*
X190848280Y-104306300D03*
X192946320Y-104306300D03*
X190776380Y-106788400D03*
X192874420Y-106788400D03*
D27*
X132425440Y-116397700D03*
X132933440Y-116397700D03*
X133441440Y-116397700D03*
X133949440Y-116397700D03*
X134457440Y-116397700D03*
X134457440Y-111592700D03*
X133949440Y-111592700D03*
X133441440Y-111592700D03*
X132933440Y-111592700D03*
X132425440Y-111592700D03*
D28*
X133441440Y-113995200D03*
D29*
X149143720Y-120650000D03*
D30*
X149143720Y-114046000D03*
X146857720Y-114046000D03*
X151429720Y-114046000D03*
D31*
X118237040Y-97391040D03*
X117287040Y-97391040D03*
X116337040Y-97391040D03*
X116337040Y-99591040D03*
X118237040Y-99591040D03*
X117287040Y-99591040D03*
D32*
X122989520Y-86217800D03*
X122989520Y-85267800D03*
X122989520Y-84317800D03*
X120789520Y-84317800D03*
X120789520Y-86217800D03*
D33*
X130135900Y-105346500D03*
X139535900Y-105346500D03*
D34*
X147650000Y-100750000D03*
X147650000Y-98550000D03*
D35*
X170525160Y-124714000D03*
X125870000Y-76454000D03*
D36*
X111594900Y-94456900D03*
D37*
X111414900Y-89616900D03*
X111414900Y-96996900D03*
D38*
X114269900Y-93306900D03*
X114269900Y-92656900D03*
X114269900Y-92006900D03*
X114269900Y-93956900D03*
X114269900Y-94606900D03*
D39*
X114594900Y-91081900D03*
X114594900Y-95531900D03*
D36*
X111594900Y-92156900D03*
D21*
X192468500Y-114592100D03*
D22*
X192468500Y-112052100D03*
X189928500Y-114592100D03*
X189928500Y-112052100D03*
X187388500Y-114592100D03*
X187388500Y-112052100D03*
X184848500Y-114592100D03*
X184848500Y-112052100D03*
D21*
X189712600Y-94856300D03*
D22*
X192252600Y-94856300D03*
X189712600Y-92316300D03*
X192252600Y-92316300D03*
X189712600Y-89776300D03*
X192252600Y-89776300D03*
X189712600Y-87236300D03*
X192252600Y-87236300D03*
D40*
X114810540Y-105557360D03*
X114810540Y-103657360D03*
X111808260Y-104607360D03*
D41*
X132397320Y-120002300D03*
X134597320Y-120002300D03*
D34*
X138640000Y-115780000D03*
X138640000Y-117980000D03*
D42*
X126791720Y-104504480D03*
X126791720Y-101804480D03*
D34*
X138602720Y-113632160D03*
X138602720Y-111432160D03*
X136779000Y-111462640D03*
X136779000Y-113662640D03*
X122224800Y-97312300D03*
X122224800Y-99512300D03*
X117388640Y-103182240D03*
X117388640Y-105382240D03*
X119268240Y-103172080D03*
X119268240Y-105372080D03*
X167510000Y-112920000D03*
X167510000Y-110720000D03*
D41*
X172548000Y-115162000D03*
X170348000Y-115162000D03*
D34*
X175160000Y-110720000D03*
X175160000Y-112920000D03*
X147600000Y-90700000D03*
X147600000Y-88500000D03*
X147600000Y-92700000D03*
X147600000Y-94900000D03*
D41*
X119550360Y-94515940D03*
X117350360Y-94515940D03*
X119550360Y-92801440D03*
X117350360Y-92801440D03*
X118550000Y-86120000D03*
X116350000Y-86120000D03*
X116350000Y-84150000D03*
X118550000Y-84150000D03*
X120962240Y-82478880D03*
X123162240Y-82478880D03*
D34*
X179578000Y-84498000D03*
X179578000Y-86698000D03*
X177546000Y-84498000D03*
X177546000Y-86698000D03*
X175514000Y-84498000D03*
X175514000Y-86698000D03*
X183642000Y-84498000D03*
X183642000Y-86698000D03*
X181610000Y-84498000D03*
X181610000Y-86698000D03*
D41*
X188268600Y-99383300D03*
X186068600Y-99383300D03*
X188290000Y-101720000D03*
X186090000Y-101720000D03*
X188234800Y-104192000D03*
X186034800Y-104192000D03*
X188210000Y-106940000D03*
X186010000Y-106940000D03*
X147700000Y-83200000D03*
X145500000Y-83200000D03*
D43*
X173536600Y-81012860D03*
X173536600Y-76512860D03*
X183536600Y-81012860D03*
X183536600Y-76512860D03*
D32*
X170348000Y-110656000D03*
X170348000Y-111606000D03*
X170348000Y-112556000D03*
X172548000Y-112556000D03*
X172548000Y-110656000D03*
X172548000Y-111606000D03*
D44*
X168019000Y-76454000D03*
D45*
X162939000Y-76454000D03*
X160399000Y-76454000D03*
X157859000Y-76454000D03*
X155319000Y-76454000D03*
X152779000Y-76454000D03*
X150239000Y-76454000D03*
D44*
X146175000Y-76454000D03*
D45*
X143635000Y-76454000D03*
X141095000Y-76454000D03*
X138555000Y-76454000D03*
X136015000Y-76454000D03*
X133479000Y-76454000D03*
X165479000Y-76454000D03*
D44*
X168019000Y-124714000D03*
D45*
X165479000Y-124714000D03*
X162939000Y-124714000D03*
X160399000Y-124714000D03*
X157859000Y-124714000D03*
X155319000Y-124714000D03*
X150239000Y-124714000D03*
X145159000Y-124714000D03*
X142619000Y-124714000D03*
X140079000Y-124714000D03*
X137539000Y-124714000D03*
X147699000Y-124714000D03*
X130939000Y-76454000D03*
X128399000Y-76454000D03*
D46*
X151475200Y-89595000D03*
X151475200Y-90095000D03*
X151475200Y-90595000D03*
X151475200Y-91095000D03*
X151475200Y-91595000D03*
X151475200Y-92095000D03*
X151475200Y-92595000D03*
X151475200Y-93095000D03*
X151475200Y-93595000D03*
X151475200Y-94095000D03*
X151475200Y-94595000D03*
X151475200Y-95095000D03*
X151475200Y-95595000D03*
X151475200Y-96095000D03*
X151475200Y-96595000D03*
X151475200Y-97095000D03*
D47*
X153425200Y-99045000D03*
X153925200Y-99045000D03*
X154425200Y-99045000D03*
X154925200Y-99045000D03*
X155425200Y-99045000D03*
X155925200Y-99045000D03*
X156425200Y-99045000D03*
X156925200Y-99045000D03*
X157425200Y-99045000D03*
X157925200Y-99045000D03*
X158425200Y-99045000D03*
X158925200Y-99045000D03*
X159425200Y-99045000D03*
X159925200Y-99045000D03*
X160425200Y-99045000D03*
X160925200Y-99045000D03*
D46*
X162875200Y-97095000D03*
X162875200Y-96595000D03*
X162875200Y-96095000D03*
X162875200Y-95595000D03*
X162875200Y-95095000D03*
X162875200Y-94595000D03*
X162875200Y-94095000D03*
X162875200Y-93595000D03*
X162875200Y-93095000D03*
X162875200Y-92595000D03*
X162875200Y-92095000D03*
X162875200Y-91595000D03*
X162875200Y-91095000D03*
X162875200Y-90595000D03*
X162875200Y-90095000D03*
X162875200Y-89595000D03*
D47*
X160925200Y-87645000D03*
X160425200Y-87645000D03*
X159925200Y-87645000D03*
X159425200Y-87645000D03*
X158925200Y-87645000D03*
X158425200Y-87645000D03*
X157925200Y-87645000D03*
X157425200Y-87645000D03*
X156925200Y-87645000D03*
X156425200Y-87645000D03*
X155925200Y-87645000D03*
X155425200Y-87645000D03*
X154925200Y-87645000D03*
X154425200Y-87645000D03*
X153925200Y-87645000D03*
X153425200Y-87645000D03*
D48*
X144890000Y-93560000D03*
X144890000Y-89860000D03*
D49*
X114000000Y-78500000D03*
X114000000Y-123000000D03*
X192000000Y-123000000D03*
X192000000Y-78500000D03*
M02*
