M48
;DRILL file {KiCad 4.0.0-rc1-stable} date 01/12/2015 21:12:59
;FORMAT={-:-/ absolute / metric / decimal}
FMAT,2
METRIC,TZ
T1C0.300
T2C0.400
T3C0.500
T4C0.650
T5C0.830
T6C1.016
T7C2.400
T8C3.000
%
G90
G05
M71
T1
X111.19Y-81.79
X111.21Y-77.48
X111.37Y-121.73
X111.39Y-99.55
X111.44Y-115.02
X111.56Y-117.73
X111.59Y-125.46
X111.595Y-92.157
X111.64Y-94.47
X111.82Y-87.72
X111.82Y-107.37
X111.92Y-84.17
X112.17Y-75.75
X112.51Y-103.23
X113.39Y-99.87
X113.47Y-82.34
X114.Y-125.96
X114.15Y-120.02
X114.18Y-87.99
X114.95Y-102.41
X114.96Y-96.89
X115.91Y-92.3
X116.21Y-88.16
X116.33Y-80.02
X116.42Y-96.03
X116.49Y-91.34
X116.59Y-107.68
X116.62Y-82.52
X116.98Y-124.67
X117.39Y-81.3
X117.49Y-75.83
X117.51Y-95.92
X117.66Y-77.7
X117.77Y-125.92
X117.86Y-88.72
X118.44Y-121.32
X118.83Y-79.6
X118.94Y-123.38
X119.54Y-90.02
X119.77Y-83.08
X119.92Y-77.06
X119.94Y-95.92
X120.31Y-125.42
X121.23Y-91.83
X121.43Y-122.15
X121.99Y-107.74
X122.18Y-123.75
X122.91Y-77.39
X123.19Y-79.6
X124.19Y-86.67
X124.56Y-84.02
X124.59Y-95.25
X124.72Y-81.47
X125.06Y-125.9
X125.56Y-80.13
X125.81Y-87.63
X126.31Y-84.64
X126.45Y-85.99
X127.06Y-106.06
X128.63Y-94.83
X129.54Y-75.184
X130.21Y-87.27
X130.23Y-89.93
X130.42Y-86.52
X131.63Y-125.9
X133.43Y-96.58
X133.441Y-113.995
X133.54Y-110.57
X134.69Y-75.29
X135.77Y-81.12
X136.37Y-120.25
X136.54Y-95.68
X138.09Y-96.45
X138.31Y-121.82
X138.78Y-126.09
X139.13Y-95.91
X139.2Y-97.57
X139.61Y-75.15
X139.72Y-87.31
X140.59Y-86.56
X140.99Y-101.59
X141.47Y-126.21
X142.11Y-82.58
X142.35Y-78.54
X142.86Y-83.62
X142.94Y-84.4
X143.12Y-85.1
X143.15Y-85.87
X144.22Y-81.26
X144.56Y-102.26
X144.66Y-75.12
X144.73Y-104.52
X144.78Y-121.77
X145.35Y-126.27
X146.41Y-102.43
X146.43Y-104.97
X146.43Y-107.04
X146.49Y-126.21
X146.61Y-83.
X146.88Y-78.48
X148.336Y-75.184
X148.79Y-82.97
X148.96Y-98.25
X149.09Y-83.62
X149.45Y-126.15
X149.9Y-83.56
X150.24Y-92.74
X150.3Y-97.68
X150.32Y-106.9
X150.6Y-118.47
X150.65Y-116.31
X151.4Y-78.46
X151.45Y-87.46
X151.49Y-75.16
X151.66Y-126.2
X151.7Y-111.91
X151.88Y-98.17
X152.02Y-124.25
X152.64Y-98.27
X152.69Y-116.26
X152.75Y-118.24
X152.77Y-90.47
X152.77Y-111.95
X152.81Y-96.09
X152.82Y-89.57
X152.93Y-94.75
X153.36Y-123.63
X153.39Y-126.04
X153.54Y-96.03
X154.Y-111.75
X154.43Y-121.22
X154.44Y-94.99
X154.61Y-116.07
X154.61Y-119.1
X154.84Y-97.2
X154.97Y-94.18
X155.46Y-88.97
X155.53Y-100.31
X155.57Y-78.11
X156.02Y-81.94
X156.08Y-82.72
X156.22Y-100.16
X156.44Y-97.01
X156.47Y-97.72
X156.51Y-83.55
X156.63Y-120.99
X156.68Y-123.2
X156.7Y-75.15
X156.75Y-117.25
X156.8Y-126.12
X156.95Y-81.23
X157.96Y-80.73
X157.99Y-88.84
X158.6Y-117.75
X158.62Y-90.53
X159.12Y-76.88
X159.15Y-123.23
X159.24Y-79.92
X159.27Y-120.74
X159.29Y-126.04
X159.35Y-97.38
X159.4Y-118.88
X160.01Y-95.89
X160.6Y-88.68
X160.71Y-106.56
X160.9Y-108.31
X161.29Y-90.678
X161.44Y-121.25
X161.57Y-110.96
X161.65Y-97.09
X161.65Y-123.26
X161.7Y-77.36
X161.71Y-75.1
X161.91Y-118.3
X161.94Y-126.18
X162.05Y-82.98
X162.29Y-78.18
X162.65Y-83.6
X162.939Y-115.911
X163.46Y-82.8
X163.53Y-77.74
X163.61Y-119.75
X163.85Y-105.43
X163.94Y-98.85
X163.94Y-113.68
X164.21Y-123.38
X164.26Y-126.18
X164.29Y-77.32
X164.42Y-90.59
X164.79Y-98.19
X164.82Y-112.82
X164.92Y-117.61
X165.01Y-90.02
X165.19Y-111.63
X165.79Y-98.
X165.9Y-90.07
X166.14Y-118.65
X166.42Y-126.15
X166.53Y-81.71
X166.59Y-123.25
X166.63Y-82.67
X166.64Y-75.08
X166.7Y-77.3
X166.7Y-90.08
X167.08Y-119.42
X167.11Y-107.18
X167.52Y-116.49
X167.64Y-83.47
X168.05Y-107.98
X168.37Y-126.17
X168.45Y-86.09
X169.13Y-92.72
X169.164Y-91.948
X169.418Y-91.186
X170.16Y-117.08
X170.25Y-90.54
X170.34Y-86.17
X170.49Y-94.91
X170.65Y-75.96
X170.97Y-118.4
X171.18Y-84.
X171.22Y-89.6
X171.4Y-91.67
X171.54Y-80.67
X171.75Y-83.35
X171.87Y-120.72
X171.96Y-87.69
X171.97Y-102.67
X172.07Y-88.48
X172.55Y-105.58
X172.98Y-119.1
X173.28Y-108.97
X173.55Y-116.7
X173.72Y-94.59
X174.44Y-94.3
X174.77Y-101.67
X174.96Y-92.11
X175.08Y-114.97
X175.22Y-117.67
X175.514Y-83.058
X175.56Y-75.69
X176.27Y-108.02
X176.36Y-104.13
X176.74Y-116.37
X176.83Y-104.79
X177.Y-112.85
X177.24Y-92.47
X177.29Y-81.12
X177.292Y-82.804
X177.3Y-95.86
X177.34Y-126.48
X177.45Y-118.26
X178.04Y-76.15
X178.25Y-111.6
X178.5Y-110.55
X178.8Y-113.96
X179.24Y-119.47
X179.41Y-114.83
X179.68Y-96.11
X179.76Y-116.23
X180.17Y-108.97
X180.17Y-112.67
X180.18Y-111.34
X180.24Y-76.05
X180.34Y-81.534
X181.356Y-81.534
X181.36Y-76.01
X181.52Y-101.63
X181.58Y-102.4
X181.78Y-93.99
X182.27Y-110.55
X183.11Y-107.78
X183.21Y-116.19
X183.47Y-78.76
X183.642Y-82.804
X183.91Y-119.37
X184.08Y-107.07
X184.28Y-104.24
X184.44Y-101.68
X184.45Y-105.66
X185.26Y-92.25
X185.63Y-87.34
X187.3Y-122.22
X187.34Y-118.91
X188.04Y-82.81
X188.37Y-105.54
X188.67Y-116.23
X188.68Y-79.1
X188.79Y-120.78
X188.99Y-76.67
X189.32Y-126.15
X189.54Y-81.81
X189.59Y-103.
X189.6Y-100.58
X189.65Y-98.29
X190.75Y-75.77
X190.88Y-125.99
X192.34Y-81.31
X192.79Y-119.21
X193.74Y-82.81
X194.26Y-125.9
X194.32Y-97.78
X194.52Y-117.41
X194.65Y-104.97
X194.71Y-76.67
X194.73Y-108.81
X194.73Y-120.21
X194.77Y-101.73
X194.91Y-112.88
X194.91Y-122.69
X194.94Y-81.53
X194.96Y-86.45
X194.99Y-91.48
X195.07Y-99.21
X195.15Y-95.59
T2
X122.52Y-96.02
X122.58Y-75.83
X123.1Y-89.21
X123.35Y-87.9
X123.38Y-92.12
X125.01Y-85.26
X126.77Y-91.33
X127.2Y-87.8
X127.26Y-78.72
X127.69Y-92.2
X128.1Y-96.76
X128.2Y-81.15
X128.64Y-101.51
X128.71Y-89.59
X128.77Y-83.88
X129.11Y-80.85
X129.19Y-99.21
X129.66Y-77.85
X130.23Y-84.94
X130.64Y-92.61
X131.01Y-101.81
X131.16Y-94.56
X132.04Y-84.39
X132.2Y-77.44
X132.36Y-85.79
X132.36Y-99.41
X132.81Y-80.51
X132.83Y-108.1
X132.97Y-104.69
X135.06Y-106.03
X135.15Y-77.95
X136.86Y-103.75
X137.04Y-85.75
X137.06Y-77.81
X137.35Y-95.79
X137.85Y-84.27
X137.97Y-90.69
X138.19Y-108.99
X138.77Y-80.53
X141.02Y-78.17
X142.63Y-77.65
X142.97Y-80.9
X144.8Y-77.8
X144.81Y-111.53
X147.65Y-105.51
X148.01Y-112.43
X148.32Y-77.23
X149.21Y-82.3
X149.56Y-81.07
X151.42Y-77.39
X152.5Y-87.32
X152.52Y-95.38
X152.89Y-81.71
X152.9Y-92.13
X153.25Y-101.8
X153.39Y-100.98
X153.74Y-105.75
X153.79Y-82.3
X153.79Y-88.79
X154.17Y-78.93
X154.31Y-108.37
X155.98Y-80.13
X156.33Y-106.09
X156.39Y-108.49
X156.44Y-103.52
X157.Y-89.57
X157.76Y-91.74
X158.64Y-114.55
X159.27Y-94.16
X160.44Y-94.27
X161.28Y-105.56
X161.56Y-100.36
X163.78Y-81.43
X166.31Y-100.28
X169.Y-122.29
X169.02Y-83.7
X170.07Y-80.97
X173.82Y-111.59
X173.89Y-104.58
X178.4Y-81.85
X180.33Y-120.38
X182.6Y-82.91
X185.54Y-85.03
X185.88Y-93.46
X186.01Y-89.61
X186.29Y-87.84
X187.11Y-96.25
X187.76Y-91.05
T3
X121.07Y-87.52
X122.27Y-94.86
X124.33Y-103.94
X127.06Y-124.24
X127.59Y-120.07
X130.45Y-120.62
X130.56Y-122.81
X130.87Y-116.71
X131.55Y-118.67
X137.32Y-121.35
X139.11Y-121.09
X140.78Y-117.84
X148.45Y-118.41
T6
X125.87Y-76.454
X128.399Y-76.454
X130.939Y-76.454
X133.479Y-76.454
X136.015Y-76.454
X137.539Y-124.714
X138.555Y-76.454
X140.079Y-124.714
X141.095Y-76.454
X142.619Y-124.714
X143.635Y-76.454
X145.159Y-124.714
X146.175Y-76.454
X147.699Y-124.714
X150.239Y-76.454
X150.239Y-124.714
X152.779Y-76.454
X155.319Y-76.454
X155.319Y-124.714
X157.859Y-76.454
X157.859Y-124.714
X160.399Y-76.454
X160.399Y-124.714
X162.939Y-76.454
X162.939Y-124.714
X165.479Y-76.454
X165.479Y-124.714
X168.011Y-99.5
X168.011Y-102.04
X168.011Y-104.58
X168.019Y-76.454
X168.019Y-124.714
X170.525Y-124.714
X170.551Y-99.5
X170.551Y-102.04
X170.551Y-104.58
X174.04Y-124.7
X176.58Y-124.7
X179.12Y-124.7
X181.66Y-124.7
X184.2Y-124.7
X184.849Y-112.052
X184.849Y-114.592
X186.74Y-124.7
X187.388Y-112.052
X187.388Y-114.592
X189.713Y-87.236
X189.713Y-89.776
X189.713Y-92.316
X189.713Y-94.856
X189.928Y-112.052
X189.928Y-114.592
X192.253Y-87.236
X192.253Y-89.776
X192.253Y-92.316
X192.253Y-94.856
X192.468Y-112.052
X192.468Y-114.592
T8
X114.Y-78.5
X114.Y-123.
X192.Y-78.5
X192.Y-123.
T4
X114.495Y-91.082G85X114.695Y-91.082
G05
X114.495Y-95.532G85X114.695Y-95.532
G05
T5
X111.08Y-89.217G85X111.75Y-89.217
G05
X111.08Y-97.397G85X111.75Y-97.397
G05
T6
X114.107Y-110.942G85X114.107Y-112.466
G05
X115.631Y-116.784G85X117.155Y-116.784
G05
T7
X120.203Y-111.004G85X120.203Y-112.404
G05
T0
M30
